<?xml version="1.0" encoding="iso-8859-1"?>
<!-- Generator: Adobe Illustrator 19.0.0, SVG Export Plug-In . SVG Version: 6.00 Build 0)  -->
<svg version="1.1" id="Layer_1" xmlns="http://www.w3.org/2000/svg" xmlns:xlink="http://www.w3.org/1999/xlink" x="0px" y="0px"
	 viewBox="0 0 512 512" style="enable-background:new 0 0 512 512;" xml:space="preserve">
<circle style="fill:#F2CF61;" cx="256" cy="256" r="256"/>
<path style="fill:#4AB8A1;" d="M408,324c0,8.8-7.2,16-16,16H80c-8.8,0-16-7.2-16-16V188c0-8.8,7.2-16,16-16h312c8.8,0,16,7.2,16,16
	V324z"/>
<path style="fill:#F5F5F5;" d="M408,216h32c4.4,0,8,3.6,8,8v64c0,4.4-3.6,8-8,8h-32V216z"/>
<rect x="408" y="216" style="fill:#CCCCCC;" width="8" height="80"/>
<path style="fill:#F5F5F5;" d="M208,260h-56c-4.416,0-8-3.584-8-8s3.584-8,8-8h56c4.416,0,8,3.584,8,8
	C216,256.416,212.416,260,208,260z"/>
<path style="fill:#CCCCCC;" d="M260,276c0,4.4-3.6,8-8,8l0,0c-4.4,0-8-3.6-8-8v-48c0-4.4,3.6-8,8-8l0,0c4.4,0,8,3.6,8,8V276z"/>
<g>
	<path style="fill:#F5F5F5;" d="M280,240h-20v8h20c2.208,0,4-1.788,4-4S282.208,240,280,240z"/>
	<path style="fill:#F5F5F5;" d="M280,260h-20v8h20c2.208,0,4-1.788,4-4S282.208,260,280,260z"/>
</g>
<path style="fill:#E6E6E6;" d="M244,276h-28c-4.4,0-8-3.6-8-8v-32c0-4.4,3.6-8,8-8h28V276z"/>
<g>
</g>
<g>
</g>
<g>
</g>
<g>
</g>
<g>
</g>
<g>
</g>
<g>
</g>
<g>
</g>
<g>
</g>
<g>
</g>
<g>
</g>
<g>
</g>
<g>
</g>
<g>
</g>
<g>
</g>
</svg>
