<?xml version="1.0" encoding="iso-8859-1"?>
<!-- Generator: Adobe Illustrator 19.0.0, SVG Export Plug-In . SVG Version: 6.00 Build 0)  -->
<svg version="1.1" id="Layer_1" xmlns="http://www.w3.org/2000/svg" xmlns:xlink="http://www.w3.org/1999/xlink" x="0px" y="0px"
	 viewBox="0 0 512 512" style="enable-background:new 0 0 512 512;" xml:space="preserve">
<path style="fill:#E21B1B;" d="M314.784,275.993C272.272,188.337,256,160.521,256,160.521s-16.272,27.816-58.784,115.472
	c-22.488,46.4-48.8,86.608-48.8,136.992C148.4,501.697,256,498.041,256,498.041s107.6,3.672,107.6-85.032
	C363.6,362.601,337.28,322.361,314.784,275.993z"/>
<path d="M478.68,92.761c-29.024-59.84-40.128-78.824-40.128-78.824S427.44,32.929,398.4,92.761
	c-15.352,31.656-33.32,59.12-33.32,93.52c0,60.552,73.448,58.048,73.448,58.048S512,246.841,512,186.281
	C512,151.881,494.032,124.441,478.68,92.761z"/>
<path style="fill:#999999;" d="M113.6,92.761C84.56,32.929,73.448,13.937,73.448,13.937S62.344,32.929,33.32,92.761
	C17.968,124.441,0,151.881,0,186.281c0,60.552,73.448,58.048,73.448,58.048s73.448,2.512,73.448-58.048
	C146.904,151.881,128.936,124.441,113.6,92.761z"/>
<g>
</g>
<g>
</g>
<g>
</g>
<g>
</g>
<g>
</g>
<g>
</g>
<g>
</g>
<g>
</g>
<g>
</g>
<g>
</g>
<g>
</g>
<g>
</g>
<g>
</g>
<g>
</g>
<g>
</g>
</svg>
